<svg 
          width="799"
          height="690"
          viewBox="-350 -100 799 690" fill="none" xmlns="http://www.w3.org/2000/svg">
          <g>
           <path d="M129.279 67.6515L132.233 103.119L145.493 107.06L158.749 103.122L161.707 67.6515H129.279Z" fill="#FF5722" />
          <path
            d="M155.302 79.2498H145.492H139.76L140.13 83.7057H145.492H154.931L153.817 97.0654L145.492 99.5357L145.485 99.5381L137.166 97.0654L136.584 90.0776H140.661L140.964 93.7029L145.487 95.0109L145.492 95.0085L150.021 93.7005L150.493 88.0583H145.492H136.418L135.319 74.9029H145.492H155.663L155.302 79.2498Z"
            fill="#FAFAFA" />
          <path d="M130.07 68.6127L132.879 102.35L145.493 106.099L158.102 102.353L160.916 68.6127H130.07Z" fill="#2196F3" />
          <path
            d="M154.909 79.6463L154.554 83.8844L153.484 96.5897L145.493 98.9398L145.486 98.9422L137.499 96.5897L136.942 89.9455H140.854L141.146 93.3921L145.488 94.6384L145.491 94.636L149.84 93.3897L150.432 87.6466L136.754 87.6867L136.366 83.7602L150.76 83.58L151.051 79.3764L135.981 79.4213L135.728 75.5108H145.493H155.257L154.909 79.6463Z"
            fill="#FAFAFA" />
          <path
            d="M157.149 67.6515H133.836C132.82 67.6515 131.745 68.6688 131.745 69.7493V95.1743L143.58 107.06H157.149C158.165 107.06 159.24 106.043 159.24 104.962V69.7493C159.24 68.6688 158.165 67.6515 157.149 67.6515Z"
            fill="#0EE0B8" />
          <path
            d="M157.149 67.6515H133.836C132.82 67.6515 131.745 68.6688 131.745 69.7493V95.1743L143.58 107.06H157.149C158.165 107.06 159.24 106.043 159.24 104.962V69.7493C159.24 68.6688 158.165 67.6515 157.149 67.6515Z"
            fill="#7C4EA8" />
          <path
            d="M159.24 98.1612V69.7493C159.24 68.6688 158.165 67.6515 157.149 67.6515H133.836C132.82 67.6515 131.924 68.5414 131.924 69.5587"
            fill="#653E93" />
          <path d="M159.24 98.1612V69.7493C159.24 68.6688 158.165 67.6515 157.149 67.6515H142.504" fill="#553687" />
          <path
            d="M141.907 95.6189V105.09C141.907 105.217 142.026 105.344 142.026 105.471L143.461 106.933C143.58 106.933 143.699 107.06 143.819 107.06H153.204L142.145 95.6189H141.907Z"
            fill="#653E93" />
          <path
            d="M141.907 95.5548V105.089C141.907 105.216 142.026 105.343 142.026 105.47L143.461 106.933C143.58 106.933 143.699 107.059 143.819 107.059H148.601L143.161 97.4619L141.907 95.5548Z"
            fill="#553687" />
          <path d="M143.58 107.059H143.7V97.0807C143.7 96.0001 142.804 94.9829 141.788 94.9829L131.745 95.1102L143.58 107.059Z"
            fill="white" />
          <path d="M131.745 95.111L143.58 107.061H143.7V96.8908" fill="#ECE4F9" />
          <path
            d="M132.94 95.1102V69.7493C132.94 68.6688 133.657 67.6515 134.614 67.6515H133.836C132.82 67.6515 131.745 68.6688 131.745 69.7493V95.1743L132.94 95.1102Z"
            fill="#C588FF" />
          <path
            d="M143.162 85.1307L142.086 81.9532C141.847 81.1907 141.668 80.682 141.548 80.046H141.488C141.309 80.682 141.129 81.2539 140.95 81.9532L139.874 85.1307H143.162ZM139.635 86.4027L138.5 90.2162H137.065L140.771 78.7749H142.444L146.15 90.2162H144.656L143.52 86.4027H139.635Z"
            fill="white" />
          <path
            d="M140.352 84.8127H142.743L141.846 82.0797C141.726 81.6985 141.607 81.3805 141.547 81.1266C141.488 81.3805 141.427 81.5719 141.368 81.8258L141.308 82.0797L140.352 84.8127ZM143.161 85.4487H139.873C139.754 85.4487 139.693 85.3846 139.634 85.3213C139.574 85.2581 139.574 85.1315 139.574 85.0041L140.71 81.5711C140.89 80.9992 141.069 80.4906 141.189 79.9187C141.248 79.7913 141.367 79.6648 141.487 79.6648H141.547C141.667 79.6648 141.787 79.7913 141.846 79.9187C142.026 80.5547 142.145 81.0633 142.384 81.8258L143.46 84.9401C143.519 85.0674 143.46 85.1307 143.4 85.2581C143.341 85.3854 143.28 85.4487 143.161 85.4487ZM144.834 89.8982H145.671L142.205 79.0928H140.949L137.483 89.8982H138.32L139.395 86.3386C139.455 86.2112 139.574 86.0847 139.694 86.0847H143.519C143.639 86.0847 143.759 86.148 143.818 86.2753L144.834 89.8982ZM146.15 90.5334C146.09 90.5334 146.09 90.5334 146.15 90.5334H144.655C144.535 90.5334 144.416 90.4701 144.356 90.3427L143.221 86.7199H139.813L138.738 90.2795C138.678 90.4068 138.558 90.5334 138.439 90.5334H137.004C136.885 90.5334 136.824 90.4701 136.765 90.4068C136.705 90.3435 136.705 90.2162 136.705 90.0888L140.411 78.6475C140.471 78.5201 140.591 78.4569 140.71 78.4569H142.384C142.504 78.4569 142.623 78.5201 142.682 78.6475L146.329 90.0255C146.388 90.0888 146.388 90.1529 146.388 90.2162C146.448 90.4068 146.269 90.5334 146.15 90.5334Z"
            fill="white" />
          <path
            d="M152.426 85.1315C152.426 83.8603 152.068 82.7157 150.454 82.7157C149.019 82.7157 148.421 83.8603 148.302 85.1315H152.426ZM148.242 86.4027C148.302 88.3098 149.497 89.1357 150.932 89.1357C151.948 89.1357 152.546 88.8809 153.084 88.627L153.323 89.7076C152.845 89.9615 151.948 90.2162 150.753 90.2162C148.362 90.2162 146.927 88.5637 146.927 86.0214C146.927 83.5423 148.302 81.5719 150.573 81.5719C153.144 81.5719 153.801 84.0502 153.801 85.5761C153.801 85.8941 153.741 85.7667 153.741 86.4027H148.242Z"
            fill="white" />
          <path
            d="M148.601 84.8135H152.067C152.008 84.1775 151.888 83.733 151.589 83.415C151.35 83.097 150.931 82.9704 150.393 82.9704C149.139 83.0337 148.72 84.1142 148.601 84.8135ZM152.426 85.4487H148.302C148.242 85.4487 148.122 85.3854 148.063 85.3221C148.003 85.2589 148.003 85.1948 148.003 85.0674C148.182 83.3509 149.079 82.3344 150.454 82.3344C151.171 82.3344 151.709 82.5259 152.067 82.9704C152.485 83.415 152.725 84.1783 152.725 85.1315C152.725 85.3221 152.545 85.4487 152.426 85.4487ZM150.573 81.8899C148.6 81.8899 147.226 83.6064 147.226 86.0214C147.226 88.3731 148.6 89.8982 150.752 89.8982C151.828 89.8982 152.546 89.7075 152.964 89.5169L152.845 89.0724C152.366 89.263 151.768 89.4536 150.872 89.4536C149.078 89.4536 147.942 88.2457 147.883 86.4027C147.883 86.3394 147.884 86.2112 147.943 86.1479C148.003 86.0847 148.062 86.0847 148.182 86.0847H153.382C153.382 85.9573 153.382 85.894 153.382 85.8308C153.382 85.7675 153.382 85.7026 153.382 85.6393C153.442 85.1948 153.382 81.8899 150.573 81.8899ZM150.752 90.5342C148.241 90.5342 146.628 88.7544 146.628 86.0214C146.628 83.2243 148.241 81.2539 150.573 81.2539C153.322 81.2539 154.099 83.9869 154.099 85.576C154.099 85.7034 154.099 85.7667 154.099 85.894C154.099 85.9573 154.099 86.0847 154.04 86.4027C154.04 86.5933 153.92 86.7207 153.741 86.7207H148.601C148.72 88.0551 149.617 88.8176 150.932 88.8176C151.889 88.8176 152.426 88.627 152.964 88.3731C153.024 88.3098 153.144 88.3098 153.203 88.3731C153.263 88.4364 153.323 88.5005 153.382 88.5637L153.622 89.6443C153.681 89.7716 153.562 89.9623 153.442 90.0255C152.964 90.2794 152.067 90.5342 150.752 90.5342Z"
            fill="white" />
          <g opacity="0.1">
            <path
              d="M143.281 86.0847H140.83L141.787 83.0337C141.846 82.8431 141.907 82.7165 141.907 82.5892C141.966 82.4618 141.966 82.3345 142.026 82.2071C142.085 82.3345 142.145 82.5251 142.205 82.6524C142.264 82.7798 142.325 82.9064 142.325 83.097L143.281 86.0847ZM143.222 79.2835C143.162 79.1561 143.042 79.0928 142.923 79.0928H141.249C141.129 79.0928 141.009 79.1561 140.95 79.2835L137.244 91.36C137.244 91.4874 137.244 91.5514 137.303 91.6147C137.363 91.678 137.423 91.7421 137.543 91.7421H138.977C139.097 91.7421 139.217 91.678 139.276 91.4874L140.352 87.9278H143.76L144.835 91.5514C144.895 91.6788 145.015 91.7421 145.134 91.7421H146.629C146.808 91.7421 146.927 91.6147 146.927 91.4241C146.927 91.3608 146.927 91.2967 146.867 91.2334L143.222 79.2835Z"
              fill="black" />
          </g>
          <g opacity="0.1">
            <path
              d="M150.932 84.3057C151.47 84.3057 151.889 84.4322 152.127 84.7502C152.426 85.0682 152.546 85.5128 152.606 86.1488H149.139C149.258 85.3862 149.677 84.3057 150.932 84.3057ZM151.051 82.3985C148.72 82.3985 147.106 84.369 147.106 87.166C147.106 89.899 148.72 91.6147 151.23 91.6147C152.485 91.6147 153.382 91.2967 153.92 91.0428C154.04 90.9795 154.1 90.8522 154.1 90.6615L153.861 89.6443C153.861 89.581 153.801 89.4536 153.681 89.4536C153.622 89.3904 153.502 89.3904 153.443 89.4536C152.905 89.7076 152.367 89.7716 151.41 89.7716C150.274 89.7716 149.199 89.4544 149.079 87.3567H154.219C154.578 87.3567 154.578 86.9113 154.578 86.4668C154.578 84.6237 153.681 82.3985 151.051 82.3985Z"
              fill="black" />
          </g>
          <path
            d="M157.155 94.8467V68.8914C157.155 67.6811 156.224 66.6903 155.085 66.6903H138.252L129.799 75.679V94.8467H157.155Z"
            fill="#EDF4FC" />
          <path
            d="M129.799 94.8467V104.037C129.799 105.248 130.731 106.238 131.869 106.238H155.085C156.224 106.238 157.155 105.248 157.155 104.037V94.8467H129.799Z"
            fill="#FC657E" />
          <path
            d="M142.718 97.675H142.034C141.988 97.675 141.95 97.715 141.95 97.7639V101.949C141.95 102.41 141.733 102.699 141.275 102.699C140.742 102.699 140.533 102.305 140.533 101.734C140.533 101.685 140.495 101.644 140.449 101.644H139.766C139.72 101.644 139.682 101.685 139.682 101.734C139.682 102.891 140.316 103.54 141.305 103.54C142.262 103.54 142.801 102.906 142.801 101.949V97.7639C142.801 97.715 142.764 97.675 142.718 97.675Z"
            fill="black" />
          <path
            d="M144.558 99.619C144.294 99.2866 144.314 98.3646 145.24 98.3646C145.795 98.3646 146.121 98.7267 146.195 99.1384C146.202 99.1809 146.237 99.2105 146.277 99.2105H147.013C147.063 99.2105 147.102 99.164 147.096 99.1104C146.996 98.2717 146.363 97.6029 145.24 97.6029C144.641 97.6029 144.044 97.808 143.724 98.347C143.41 98.8757 143.466 99.6422 143.742 100.045C144.476 101.112 146.314 100.74 146.314 101.957C146.314 102.42 146.043 102.778 145.466 102.778C144.849 102.778 144.476 102.348 144.431 101.868C144.426 101.823 144.39 101.788 144.347 101.788H143.619C143.57 101.788 143.531 101.833 143.535 101.885C143.619 102.911 144.462 103.54 145.488 103.54C146.608 103.54 147.209 102.798 147.209 101.933C147.209 100.072 145.184 100.409 144.558 99.619Z"
            fill="black" />
          <path
            d="M155.085 106.684H131.869C130.496 106.684 129.38 105.497 129.38 104.037V94.8467C129.38 94.6008 129.568 94.4006 129.8 94.4006C130.031 94.4006 130.218 94.6008 130.218 94.8467V104.037C130.218 105.005 130.959 105.792 131.869 105.792H155.085C155.995 105.792 156.736 105.005 156.736 104.037V94.8467C156.736 94.6008 156.924 94.4006 157.155 94.4006C157.387 94.4006 157.574 94.6008 157.574 94.8467V104.037C157.574 105.497 156.458 106.684 155.085 106.684Z"
            fill="black" />
          <path d="M129.799 75.679H136.183C137.321 75.679 138.252 74.6882 138.252 73.4779V66.6903L129.799 75.679Z"
            fill="#FC657E" />
          <path
            d="M161.58 87.9894C160.884 88.1272 160.336 88.6983 160.203 89.4232C160.196 89.4592 160.149 89.4592 160.142 89.4232C160.009 88.6983 159.462 88.1272 158.766 87.9894C158.731 87.9822 158.731 87.9325 158.766 87.9253C159.462 87.7876 160.009 87.2165 160.142 86.4916C160.149 86.4555 160.196 86.4555 160.203 86.4916C160.336 87.2165 160.884 87.7876 161.58 87.9253C161.615 87.9325 161.615 87.9822 161.58 87.9894Z"
            fill="#F5C84C" />
          <path
            d="M144.053 109.16C143.564 109.256 143.18 109.657 143.087 110.166C143.082 110.191 143.048 110.191 143.044 110.166C142.951 109.657 142.566 109.256 142.078 109.16C142.053 109.155 142.053 109.12 142.078 109.116C142.566 109.019 142.951 108.618 143.044 108.109C143.048 108.084 143.082 108.084 143.087 108.109C143.18 108.618 143.564 109.019 144.053 109.116C144.077 109.12 144.077 109.155 144.053 109.16Z"
            fill="#FC657E" />
          <path
            d="M136.433 64.5276C136.745 64.5276 136.999 64.7976 136.999 65.13C136.999 65.4624 136.745 65.7323 136.433 65.7323C136.12 65.7323 135.866 65.4624 135.866 65.13C135.866 64.7976 136.12 64.5276 136.433 64.5276Z"
            fill="#FC657E" />
          <path
            d="M159.41 82.1839C159.722 82.1839 159.976 82.4538 159.976 82.7862C159.976 83.1186 159.722 83.3885 159.41 83.3885C159.097 83.3885 158.843 83.1186 158.843 82.7862C158.843 82.4538 159.097 82.1839 159.41 82.1839Z"
            fill="#87D147" />
          <path
            d="M133.158 66.4468H132.852V66.1216C132.852 65.8781 132.666 65.6803 132.437 65.6803C132.208 65.6803 132.023 65.8781 132.023 66.1216V66.4468H131.717C131.488 66.4468 131.302 66.6439 131.302 66.8874C131.302 67.1309 131.488 67.3287 131.717 67.3287H132.023V67.6539C132.023 67.8974 132.208 68.0953 132.437 68.0953C132.666 68.0953 132.852 67.8974 132.852 67.6539V67.3287H133.158C133.387 67.3287 133.573 67.1309 133.573 66.8874C133.573 66.6439 133.387 66.4468 133.158 66.4468Z"
            fill="#70D6F9" />
          <path
            d="M138.677 107.731C138.99 107.731 139.244 108.001 139.244 108.334C139.244 108.666 138.99 108.936 138.677 108.936C138.365 108.936 138.111 108.666 138.111 108.334C138.111 108.001 138.365 107.731 138.677 107.731Z"
            fill="#F5C84C" />
          <path
            d="M130.218 94.4005H156.736V68.8907C156.736 67.9231 155.995 67.1357 155.085 67.1357H138.426L130.218 75.8633V94.4005ZM157.155 95.292H129.8C129.568 95.292 129.38 95.0918 129.38 94.8459V75.679C129.38 75.5605 129.424 75.4467 129.503 75.3634L137.956 66.3747C138.034 66.2914 138.141 66.2442 138.252 66.2442H155.085C156.458 66.2442 157.575 67.4313 157.575 68.8907V94.8459C157.575 95.0918 157.387 95.292 157.155 95.292Z"
            fill="black" />
          <path
            d="M136.183 76.1252H129.922C129.69 76.1252 129.502 75.9249 129.502 75.679C129.502 75.4331 129.69 75.2329 129.922 75.2329H136.183C137.093 75.2329 137.833 74.4455 137.833 73.4779V66.8689C137.833 66.623 138.021 66.4228 138.252 66.4228C138.483 66.4228 138.671 66.623 138.671 66.8689V73.4787C138.671 74.9381 137.555 76.1252 136.183 76.1252Z"
            fill="black" />
          <path
            d="M150.419 83.447L146.832 80.5811C146.476 80.2959 145.967 80.3704 145.698 80.7525C145.43 81.1322 145.502 81.6728 145.859 81.958L148.584 84.1359L145.859 86.313C145.502 86.5981 145.43 87.1396 145.698 87.5193C145.967 87.9005 146.477 87.9742 146.832 87.6899L150.419 84.8239C150.85 84.4795 150.851 83.7923 150.419 83.447Z"
            fill="#FC657E" />
          <path
            d="M141.245 86.3129L138.52 84.1359L141.245 81.9588C141.603 81.6728 141.675 81.1329 141.406 80.7525C141.138 80.3728 140.628 80.2959 140.271 80.5811L136.684 83.447C136.479 83.6112 136.361 83.8627 136.361 84.1359C136.361 84.409 136.479 84.6605 136.684 84.8247L140.271 87.6906C140.629 87.9766 141.137 87.8997 141.406 87.5192C141.675 87.1396 141.604 86.5997 141.245 86.3129Z"
            fill="#FC657E" />
          <path
            d="M145.073 79.4701C144.656 79.3131 144.19 79.5406 144.039 79.994L141.473 87.6995C141.324 88.148 141.544 88.6398 141.966 88.7992C142.39 88.9586 142.851 88.7215 143 88.2746L145.566 80.5699C145.716 80.1197 145.494 79.6287 145.073 79.4701Z"
            fill="#FC657E" />
          <path
            d="M146.345 80.8534C146.327 80.8534 146.309 80.855 146.29 80.8574C146.187 80.8727 146.095 80.9303 146.032 81.0192C145.97 81.1073 145.943 81.2179 145.958 81.3276C145.973 81.4382 146.027 81.5351 146.11 81.6016L148.835 83.7786C148.94 83.8628 149.002 83.9949 149.002 84.1351C149.002 84.2753 148.94 84.4074 148.835 84.4915L146.11 86.6694C145.937 86.8072 145.903 87.0675 146.032 87.2509C146.162 87.4344 146.407 87.4704 146.579 87.3334L150.167 84.4675C150.266 84.3882 150.323 84.2673 150.323 84.1351C150.323 84.0029 150.266 83.882 150.167 83.8027L146.58 80.9367C146.511 80.8823 146.43 80.8534 146.345 80.8534ZM146.346 88.3082C145.973 88.3082 145.604 88.128 145.362 87.7868C144.954 87.2109 145.064 86.3899 145.606 85.9565L147.885 84.1351L145.607 82.3144C145.344 82.1046 145.174 81.7986 145.128 81.4526C145.082 81.1065 145.164 80.7629 145.362 80.4842C145.56 80.2046 145.848 80.0236 146.174 79.9748C146.498 79.9267 146.821 80.0148 147.083 80.2239L150.671 83.0906C150.982 83.3397 151.161 83.7202 151.161 84.1351C151.161 84.55 150.982 84.9313 150.671 85.1804L147.083 88.0463C146.862 88.2225 146.603 88.3082 146.346 88.3082Z"
            fill="black" />
          <path
            d="M140.757 80.8542C140.673 80.8542 140.592 80.8831 140.524 80.9375L136.937 83.8035C136.836 83.8836 136.781 84.0021 136.781 84.1359C136.781 84.2696 136.837 84.3882 136.937 84.4683L140.524 87.3342C140.608 87.4007 140.71 87.4295 140.814 87.4135C140.917 87.3983 141.009 87.3406 141.071 87.2517C141.134 87.1628 141.161 87.0531 141.146 86.9433C141.132 86.8336 141.077 86.7367 140.994 86.6694L138.268 84.4923C138.163 84.4082 138.101 84.276 138.101 84.1359C138.101 83.9957 138.163 83.8635 138.268 83.7794L140.994 81.6023C141.077 81.5359 141.131 81.4381 141.146 81.3284C141.161 81.2187 141.134 81.1089 141.071 81.02C141.009 80.9311 140.917 80.875 140.814 80.859C140.795 80.8566 140.776 80.8542 140.757 80.8542ZM140.756 88.3098C140.492 88.3098 140.236 88.2193 140.02 88.0471L136.433 85.1812C136.121 84.9321 135.942 84.5508 135.942 84.1359C135.942 83.721 136.121 83.3397 136.433 83.0906L140.02 80.2246C140.282 80.0148 140.606 79.9275 140.931 79.9763C141.256 80.0252 141.544 80.2062 141.742 80.485C141.939 80.7637 142.022 81.1081 141.976 81.4542C141.93 81.8002 141.76 82.1054 141.497 82.3152L139.218 84.1359L141.497 85.9565C141.76 86.1664 141.931 86.4732 141.977 86.8192C142.023 87.1644 141.939 87.5088 141.742 87.7876C141.544 88.0663 141.257 88.2473 140.932 88.2962C140.873 88.305 140.814 88.3098 140.756 88.3098Z"
            fill="black" />
          <path
            d="M144.803 79.8666C144.642 79.8666 144.49 79.9739 144.434 80.1438L141.867 87.8493C141.795 88.0655 141.903 88.3026 142.105 88.3795C142.309 88.4564 142.533 88.3419 142.604 88.1264L145.17 80.4217C145.242 80.2054 145.135 79.9675 144.932 79.8906C144.889 79.8746 144.846 79.8666 144.803 79.8666ZM142.235 89.2951C142.099 89.2951 141.961 89.271 141.826 89.2206C141.187 88.9803 140.851 88.2305 141.077 87.5513L143.644 79.8458C143.87 79.1666 144.574 78.8093 145.213 79.0504C145.851 79.2915 146.187 80.0396 145.961 80.7189L143.394 88.4244C143.216 88.9602 142.741 89.2951 142.235 89.2951Z"
            fill="black" />
          <path
            d="M152.164 78.6859C152.164 80.4281 150.837 81.8386 149.199 81.8386C150.836 81.8386 152.164 80.4273 152.164 78.6859ZM152.164 74.7451C152.164 73.0037 150.836 71.5924 149.199 71.5924C150.837 71.5924 152.164 73.0029 152.164 74.7451ZM155.87 67.6515H137.34C135.702 67.6515 134.375 69.0629 134.375 70.8042V71.5924H129.928C128.29 71.5924 126.963 73.0037 126.963 74.7451V78.6859C126.963 80.4273 128.29 81.8386 129.928 81.8386H134.375V87.3558V97.6021V100.755C134.375 102.497 135.701 103.907 137.34 103.907H139.563H141.787C141.787 105.649 143.114 107.06 144.752 107.06H153.646C155.284 107.06 156.611 105.649 156.611 103.907H158.834H161.058C162.696 103.907 164.023 102.496 164.023 100.755V76.3214V75.5333L156.611 67.6515H155.87Z"
            fill="#FFD9F3" />
          <path
            d="M152.164 74.7451V78.6859C152.164 80.4273 150.836 81.8386 149.199 81.8386H129.928C128.29 81.8386 126.963 80.4273 126.963 78.6859V74.7451C126.963 73.0037 128.29 71.5924 129.928 71.5924H149.199C150.836 71.5924 152.164 73.0037 152.164 74.7451Z"
            fill="#FF3FC2" />
          <path
            d="M153.646 107.06H144.752C143.114 107.06 141.787 105.649 141.787 103.908V96.0258C141.787 94.2844 143.114 92.8731 144.752 92.8731H153.646C155.284 92.8731 156.611 94.2844 156.611 96.0258V103.908C156.611 105.649 155.284 107.06 153.646 107.06Z"
            fill="#FF3FC2" />
          <path
            d="M156.611 67.6515H155.87V73.1687C155.87 74.9101 157.197 76.3214 158.834 76.3214H164.023V75.5333L156.611 67.6515Z"
            fill="#FF8CDA" />
          <path
            d="M153.441 103.914H151.754L151.422 103.335L149.199 99.1961L147.512 102.338L149.199 102.343L149.622 102.344L150.508 103.914H144.957L149.199 96.0193L153.441 103.914Z"
            fill="white" />
          <path d="M130.274 77.5838V79.1858H129.521V77.5838H130.274Z" fill="white" />
          <path
            d="M132.979 79.4701L133.369 78.4681C133.458 78.239 133.549 78.0027 133.64 77.7392C133.744 78.0147 133.836 78.243 133.936 78.4705L134.357 79.4709H136.018L134.618 76.7131L135.939 73.9729H134.338L134.028 74.8941C133.951 75.0991 133.861 75.3418 133.769 75.6238C133.74 75.5485 133.711 75.4756 133.684 75.4059C133.61 75.2153 133.544 75.0431 133.478 74.8941L133.118 73.9737H131.457L132.779 76.649L131.379 79.4717H132.979V79.4701Z"
            fill="white" />
          <path
            d="M137.923 78.1733V75.2721C138.555 75.2721 139.141 75.4451 139.141 76.6979C139.141 78.0043 138.491 78.1733 137.923 78.1733ZM140.654 76.6979C140.654 74.9157 139.736 73.9737 137.999 73.9737H136.44V79.4717H138.077C139.715 79.4709 140.654 78.4601 140.654 76.6979Z"
            fill="white" />
          <path
            d="M164.023 87.3558C164.023 93.8479 161.07 99.6062 156.515 103.196C154.609 104.699 152.422 105.822 150.053 106.459C148.594 106.852 147.066 107.06 145.493 107.06C143.919 107.06 142.391 106.852 140.932 106.459C138.563 105.822 136.376 104.699 134.47 103.195C129.915 99.6054 126.963 93.8471 126.963 87.3558C126.963 76.4736 135.259 67.6515 145.493 67.6515C155.726 67.6515 164.023 76.4736 164.023 87.3558Z"
            fill="#5ADAFD" />
          <path
            d="M154.836 102.904C154.616 103.915 154.212 104.609 153.633 104.964C153.055 105.32 152.288 105.345 151.354 105.042C150.342 104.713 149.161 103.995 147.937 102.962C147.526 102.614 147.113 102.236 146.701 101.83C146.297 101.431 145.894 101.004 145.493 100.553C144.804 99.7784 144.124 98.9317 143.46 98.0218C143.017 97.4147 142.58 96.7795 142.154 96.1211C141.537 95.1663 140.939 94.161 140.372 93.1158C139.804 92.0705 139.285 91.018 138.816 89.9719C138.492 89.2502 138.193 88.5317 137.921 87.8196C137.512 86.7535 137.162 85.7018 136.875 84.6813C136.708 84.0862 136.563 83.5023 136.441 82.9304C136.315 82.3481 136.213 81.7786 136.136 81.2259C135.906 79.5831 135.911 78.1357 136.149 77.0391C136.369 76.0275 136.775 75.3346 137.353 74.9798C137.666 74.7883 138.033 74.6914 138.451 74.6914C138.808 74.6914 139.202 74.7611 139.632 74.9013C140.643 75.2297 141.824 75.9498 143.049 76.9822C143.46 77.3299 143.873 77.7079 144.285 78.1156C144.689 78.5137 145.093 78.9399 145.493 79.39C146.182 80.1646 146.862 81.012 147.527 81.9227C147.97 82.5299 148.407 83.1651 148.833 83.8235C149.45 84.7783 150.046 85.7835 150.613 86.828C151.181 87.8733 151.702 88.9258 152.17 89.9719C152.494 90.6944 152.793 91.4129 153.064 92.1249C153.474 93.1911 153.824 94.2419 154.111 95.2624C154.277 95.8575 154.423 96.4415 154.545 97.0134C154.67 97.5957 154.773 98.1644 154.85 98.7171C155.079 100.36 155.074 101.807 154.836 102.904ZM156.535 98.4511C156.448 97.8312 156.334 97.192 156.191 96.5392C156.065 95.9657 155.919 95.381 155.754 94.7874C155.318 93.2287 154.744 91.6091 154.048 89.9719C153.743 89.2558 153.416 88.5373 153.065 87.8188C152.756 87.186 152.431 86.5517 152.088 85.9221C151.746 85.2917 151.395 84.6757 151.032 84.075C150.623 83.3942 150.201 82.7325 149.771 82.0942C148.786 80.6347 147.753 79.2955 146.701 78.1148C146.301 77.6655 145.898 77.2386 145.494 76.8373C145.033 76.3791 144.57 75.9538 144.108 75.5637C141.091 73.0165 138.39 72.2516 136.501 73.4106C134.613 74.5705 133.885 77.4396 134.451 81.4926C134.537 82.1126 134.653 82.751 134.796 83.4038C134.92 83.9773 135.066 84.562 135.233 85.1555C135.668 86.7143 136.242 88.3355 136.939 89.9719C137.243 90.688 137.571 91.4056 137.921 92.1241C138.23 92.7577 138.555 93.3905 138.897 94.0209C139.239 94.6513 139.592 95.268 139.954 95.8688C140.364 96.5504 140.786 97.212 141.216 97.8504C142.2 99.3098 143.232 100.648 144.285 101.829C144.685 102.278 145.089 102.705 145.494 103.106C145.954 103.565 146.416 103.99 146.878 104.38C147.988 105.317 149.054 106.012 150.053 106.459C152.422 105.822 154.609 104.7 156.516 103.197C156.782 101.893 156.792 100.294 156.535 98.4511Z"
            fill="#F2F2F2" />
          <path
            d="M160.696 92.1089C159.924 92.8771 158.747 93.6052 157.294 94.2155C156.804 94.4206 156.29 94.612 155.753 94.7874C155.226 94.9604 154.678 95.1182 154.111 95.2616C153.136 95.5083 152.105 95.711 151.031 95.868C150.316 95.9737 149.581 96.0578 148.832 96.1195C147.745 96.2116 146.628 96.2588 145.493 96.2588C144.358 96.2588 143.241 96.2116 142.154 96.1203C141.404 96.0578 140.669 95.9737 139.953 95.868C138.88 95.711 137.849 95.5083 136.874 95.2616C136.307 95.1182 135.759 94.9604 135.232 94.7874C134.695 94.612 134.18 94.4206 133.691 94.2155C132.238 93.6052 131.061 92.8771 130.288 92.1089C129.574 91.4 129.212 90.6816 129.212 89.9711C129.212 89.2606 129.574 88.5421 130.288 87.8332C131.061 87.0651 132.238 86.3378 133.691 85.7274C134.18 85.5224 134.695 85.331 135.232 85.1555C135.759 84.9825 136.307 84.8239 136.874 84.6806C137.849 84.4338 138.88 84.2312 139.953 84.0742C140.669 83.9685 141.404 83.8844 142.154 83.8219C143.241 83.7306 144.358 83.6833 145.493 83.6833C146.628 83.6833 147.745 83.7298 148.832 83.8227C149.581 83.8844 150.316 83.9685 151.031 84.0742C152.105 84.2312 153.136 84.4338 154.111 84.6806C154.678 84.8239 155.226 84.9825 155.753 85.1555C156.29 85.331 156.804 85.5224 157.294 85.7274C158.747 86.3378 159.924 87.0651 160.696 87.8332C161.411 88.5421 161.773 89.2606 161.773 89.9711C161.773 90.6808 161.411 91.4 160.696 92.1089ZM157.919 84.043C157.371 83.8131 156.793 83.6 156.19 83.4038C155.66 83.2324 155.111 83.0738 154.545 82.9296C153.058 82.5515 151.451 82.2704 149.77 82.0934C149.035 82.0157 148.286 81.958 147.527 81.9219C146.856 81.8891 146.177 81.8723 145.493 81.8723C144.808 81.8723 144.129 81.8891 143.458 81.9219C142.698 81.958 141.949 82.0165 141.214 82.0934C139.533 82.2704 137.927 82.5515 136.44 82.9296C135.874 83.0738 135.325 83.2324 134.795 83.4038C134.192 83.5992 133.614 83.8131 133.066 84.043C129.483 85.5472 127.509 87.6522 127.509 89.9711C127.509 92.2899 129.483 94.3949 133.066 95.9C133.614 96.1299 134.191 96.343 134.794 96.5392C135.324 96.7106 135.873 96.8692 136.439 97.0126C137.926 97.3914 139.533 97.6718 141.215 97.8496C141.949 97.9265 142.699 97.9842 143.459 98.021C144.129 98.0539 144.808 98.0699 145.493 98.0699C146.177 98.0699 146.855 98.0539 147.526 98.021C148.286 97.9842 149.035 97.9265 149.77 97.8496C151.451 97.6726 153.058 97.3914 154.545 97.0126C155.112 96.8684 155.661 96.7114 156.19 96.5392C156.793 96.3438 157.371 96.1299 157.919 95.9C161.502 94.3949 163.476 92.2899 163.476 89.9711C163.476 87.6522 161.502 85.5472 157.919 84.043Z"
            fill="#F2F2F2" />
          <path
            d="M154.111 84.6813C153.824 85.7018 153.474 86.7527 153.065 87.8188C152.793 88.5309 152.494 89.2494 152.17 89.9719C151.702 91.018 151.181 92.0705 150.613 93.1158C150.046 94.1602 149.45 95.1655 148.833 96.1203C148.406 96.7795 147.97 97.4139 147.527 98.021C146.862 98.9309 146.182 99.7784 145.493 100.553C145.093 101.003 144.689 101.43 144.285 101.829C143.873 102.236 143.461 102.613 143.049 102.961C141.825 103.994 140.643 104.713 139.632 105.042C138.698 105.345 137.931 105.32 137.353 104.964C136.775 104.609 136.369 103.915 136.15 102.904C135.911 101.807 135.906 100.36 136.136 98.7171C136.213 98.1644 136.315 97.5949 136.44 97.0126C136.563 96.4407 136.708 95.8567 136.875 95.2616C137.162 94.2411 137.512 93.1903 137.921 92.1241C138.193 91.4121 138.492 90.6936 138.816 89.9719C139.285 88.9258 139.804 87.8733 140.372 86.828C140.939 85.7827 141.537 84.7767 142.154 83.8219C142.58 83.1635 143.016 82.5291 143.459 81.9227C144.124 81.012 144.804 80.1646 145.493 79.39C145.894 78.9391 146.297 78.5129 146.701 78.1148C147.113 77.7079 147.526 77.3299 147.937 76.9822C149.161 75.9498 150.342 75.2297 151.354 74.9013C151.783 74.7611 152.179 74.6914 152.536 74.6914C152.954 74.6914 153.321 74.7883 153.633 74.9798C154.212 75.3346 154.616 76.0275 154.836 77.0391C155.074 78.1357 155.079 79.5831 154.85 81.2259C154.773 81.7786 154.67 82.3481 154.545 82.9304C154.423 83.5023 154.277 84.0862 154.111 84.6813ZM154.484 73.4106C152.596 72.2516 149.895 73.0165 146.878 75.5637C146.416 75.9538 145.954 76.3791 145.494 76.8373C145.089 77.2386 144.685 77.6655 144.285 78.1148C143.232 79.2955 142.2 80.6347 141.215 82.0942C140.785 82.7325 140.363 83.3942 139.954 84.075C139.592 84.6757 139.239 85.2917 138.897 85.9221C138.555 86.5525 138.23 87.186 137.921 87.8196C137.571 88.5381 137.243 89.2566 136.939 89.9719C136.242 91.6091 135.667 93.2287 135.232 94.7874C135.066 95.3818 134.92 95.9665 134.795 96.54C134.653 97.1928 134.537 97.8312 134.451 98.4511C134.194 100.293 134.204 101.891 134.47 103.196C136.376 104.7 138.564 105.822 140.933 106.459C141.931 106.012 142.998 105.317 144.108 104.38C144.569 103.99 145.033 103.564 145.494 103.106C145.898 102.705 146.301 102.279 146.701 101.83C147.753 100.649 148.786 99.309 149.771 97.8496C150.201 97.2112 150.622 96.5496 151.032 95.868C151.395 95.2672 151.747 94.6513 152.089 94.0209C152.432 93.3913 152.756 92.7577 153.065 92.1241C153.416 91.4056 153.743 90.6872 154.048 89.9711C154.744 88.3347 155.318 86.7143 155.754 85.1555C155.919 84.562 156.065 83.9773 156.191 83.4038C156.334 82.751 156.448 82.1118 156.536 81.4918C157.101 77.4396 156.373 74.5705 154.484 73.4106Z"
            fill="#F2F2F2" />
          <path
            d="M145.493 86.377C147.358 86.377 148.873 87.9875 148.873 89.9711C148.873 91.9546 147.358 93.5651 145.493 93.5651C143.627 93.5651 142.113 91.9546 142.113 89.9711C142.113 87.9875 143.627 86.377 145.493 86.377Z"
            fill="#F2F2F2" />
          <path
            d="M156.581 68.6127H134.406C133.439 68.6127 132.416 69.5803 132.416 70.608V94.793L143.674 106.099H156.581C157.547 106.099 158.571 105.131 158.571 104.104V70.608C158.571 69.5803 157.547 68.6127 156.581 68.6127Z"
            fill="#0EE0B8" />
          <path
            d="M156.581 68.6127H134.406C133.439 68.6127 132.416 69.5803 132.416 70.608V94.793L143.674 106.099H156.581C157.547 106.099 158.571 105.131 158.571 104.104V70.608C158.571 69.5803 157.547 68.6127 156.581 68.6127Z"
            fill="#1080DD" />
          <path
            d="M158.57 97.6341V70.608C158.57 69.5803 157.546 68.6127 156.58 68.6127H134.405C133.439 68.6127 132.586 69.4594 132.586 70.427"
            fill="#0070CC" />
          <path d="M158.57 97.6341V70.608C158.57 69.5803 157.547 68.6127 156.581 68.6127H142.65" fill="#0667B7" />
          <path
            d="M142.081 95.2152V104.224C142.081 104.345 142.195 104.466 142.195 104.587L143.56 105.977C143.674 105.977 143.787 106.098 143.9 106.098H152.827L142.309 95.2152H142.081Z"
            fill="#0070CC" />
          <path
            d="M142.081 95.1559V104.225C142.081 104.346 142.195 104.467 142.195 104.588L143.56 105.979C143.674 105.979 143.787 106.1 143.9 106.1H148.449L143.275 96.9701L142.081 95.1559Z"
            fill="#0667B7" />
          <path
            d="M143.674 106.099H143.787V96.6065C143.787 95.5788 142.934 94.6112 141.968 94.6112L132.416 94.7322L143.674 106.099Z"
            fill="white" />
          <path d="M132.416 94.7329L143.674 106.1H143.787V96.4262" fill="#D2F3FF" />
          <path
            d="M133.552 94.7322V70.608C133.552 69.5803 134.234 68.6127 135.144 68.6127H134.405C133.439 68.6127 132.415 69.5803 132.415 70.608V94.793L133.552 94.7322Z"
            fill="#3DB8FC" />
          <path
            d="M141.229 84.031C141.229 84.091 141.797 84.1511 142.252 84.1511C143.844 84.1511 144.81 83.3053 144.81 81.7938C144.81 80.3424 143.901 79.6167 142.423 79.6167C141.854 79.6167 141.229 79.6776 141.229 79.7377V84.031ZM139.523 78.71C140.091 78.589 141.115 78.4681 142.195 78.4681C143.503 78.4681 144.526 78.7701 145.152 79.3748C145.72 79.9187 146.061 80.7053 146.061 81.6729C146.061 82.6404 145.777 83.4262 145.265 84.031C144.583 84.8167 143.503 85.2397 142.195 85.2397C141.797 85.2397 141.229 85.2397 141.229 85.1187V89.412H139.523V78.71Z"
            fill="white" />
          <path
            d="M141.513 83.789C141.683 83.789 141.911 83.8491 142.252 83.8491C143.276 83.8491 144.526 83.4871 144.526 81.7938C144.526 80.5843 143.844 79.9195 142.423 79.9195C142.025 79.9195 141.683 79.9203 141.513 79.9803V83.789ZM142.252 84.4539C141.229 84.4539 140.945 84.3938 140.945 84.0309V79.7985C140.945 79.5566 141.001 79.3756 142.423 79.3756C144.129 79.3756 145.095 80.2823 145.095 81.8547C145.095 83.427 144.015 84.4539 142.252 84.4539ZM139.807 89.1701H140.945V85.1796C140.945 84.9377 141.229 84.8167 141.399 84.9377C141.513 84.9377 141.74 84.9985 142.195 84.9985C143.446 84.9985 144.413 84.6357 145.038 83.91C145.493 83.3661 145.72 82.7005 145.72 81.7938C145.72 80.9471 145.436 80.2222 144.868 79.7384C144.299 79.1946 143.332 78.8918 142.139 78.8918C141.115 78.8918 140.261 78.9519 139.75 79.0728V89.1701H139.807ZM141.229 89.7748H139.523C139.352 89.7748 139.239 89.6531 139.239 89.4721V78.71C139.239 78.589 139.352 78.4681 139.466 78.408C140.148 78.2871 141.171 78.1661 142.195 78.1661C143.56 78.1661 144.64 78.529 145.323 79.1337C146.005 79.7384 146.345 80.6452 146.345 81.6728C146.345 82.7614 146.061 83.6072 145.493 84.212C144.754 85.0586 143.617 85.4823 142.252 85.4823C141.968 85.4823 141.74 85.4823 141.57 85.4823V89.412C141.513 89.6539 141.399 89.7748 141.229 89.7748Z"
            fill="white" />
          <path
            d="M147.312 88.0815C147.71 88.3835 148.392 88.6262 149.075 88.6262C150.041 88.6262 150.496 88.0815 150.496 87.4768C150.496 86.812 150.098 86.4491 149.132 86.0262C147.824 85.5424 147.198 84.7558 147.198 83.8491C147.198 82.5795 148.165 81.5519 149.757 81.5519C150.496 81.5519 151.179 81.7938 151.577 82.0357L151.236 83.0633C150.952 82.8823 150.383 82.5795 149.7 82.5795C148.904 82.5795 148.449 83.0633 148.449 83.6681C148.449 84.3329 148.904 84.6357 149.871 84.9985C151.178 85.5424 151.804 86.2072 151.804 87.3558C151.804 88.7464 150.781 89.714 149.018 89.714C148.222 89.714 147.483 89.4721 146.914 89.1701L147.312 88.0815Z"
            fill="white" />
          <path
            d="M147.313 89.0483C147.768 89.2902 148.393 89.4112 149.075 89.4112C150.61 89.4112 151.577 88.6254 151.577 87.3559C151.577 86.3883 151.065 85.7835 149.814 85.2396C148.904 84.8768 148.223 84.5139 148.223 83.6072C148.223 82.8215 148.848 82.2167 149.758 82.2167C150.326 82.2167 150.781 82.3977 151.122 82.5187L151.293 82.0349C150.895 81.8539 150.326 81.7329 149.814 81.7329C148.449 81.7329 147.54 82.5796 147.54 83.7282C147.54 84.5748 148.109 85.2396 149.303 85.6626C150.269 86.0254 150.894 86.4483 150.894 87.4159C150.894 88.0807 150.44 88.8673 149.189 88.8673C148.564 88.8673 147.994 88.6863 147.597 88.4444L147.313 89.0483ZM149.018 90.0159C148.165 90.0159 147.37 89.8341 146.801 89.4112C146.687 89.3511 146.631 89.1693 146.687 89.0483L147.029 87.9606C147.029 87.8997 147.142 87.7788 147.199 87.7788C147.255 87.7187 147.369 87.7788 147.426 87.8397C147.824 88.0815 148.449 88.3835 149.018 88.3835C149.757 88.3835 150.155 88.0807 150.155 87.5369C150.155 87.0531 149.985 86.7511 148.961 86.3883C147.199 85.7234 146.801 84.6349 146.801 83.8491C146.801 82.3377 147.995 81.2491 149.644 81.2491C150.326 81.2491 151.065 81.4301 151.634 81.793C151.748 81.8531 151.805 82.0349 151.748 82.1558L151.463 83.1234C151.463 83.1843 151.349 83.3045 151.293 83.3045C151.236 83.3645 151.122 83.3045 151.065 83.3045C150.838 83.1234 150.383 82.8815 149.7 82.8815C149.132 82.8815 148.734 83.1835 148.734 83.6673C148.734 84.0902 149.019 84.3329 149.985 84.6958C151.464 85.3005 152.089 86.0863 152.089 87.3559C152.089 88.9883 150.894 90.0159 149.018 90.0159Z"
            fill="white" />
          <g opacity="0.01">
            <path
              d="M142.764 84.9377C142.48 84.9377 142.195 84.9377 142.081 84.8776V81.0681C142.252 81.0681 142.594 81.008 142.935 81.008C144.3 81.008 144.981 81.6127 144.981 82.8823C145.038 84.5756 143.787 84.9377 142.764 84.9377ZM145.834 80.2823C145.152 79.6175 144.072 79.3147 142.707 79.3147C141.513 79.3147 140.546 79.4357 140.035 79.5566C139.921 79.5566 139.807 79.7376 139.807 79.8586V90.6815C139.807 90.8626 139.921 90.9835 140.091 90.9835H141.797C141.968 90.9835 142.081 90.8626 142.081 90.6815V86.6309C142.252 86.6309 142.48 86.6309 142.764 86.6309C144.129 86.6309 145.209 86.2072 146.005 85.3606C146.574 84.7558 146.858 83.8491 146.858 82.8214C146.858 81.7938 146.459 80.8871 145.834 80.2823Z"
              fill="black" />
          </g>
          <g opacity="0.01">
            <path
              d="M150.439 85.7835C149.473 85.4207 149.189 85.1788 149.189 84.7558C149.189 84.272 149.587 83.9701 150.155 83.9701C150.838 83.9701 151.292 84.212 151.52 84.393C151.576 84.4531 151.69 84.4531 151.747 84.393C151.804 84.3321 151.918 84.2712 151.918 84.2112L152.259 83.1835C152.317 83.0625 152.259 82.8807 152.146 82.8207C151.634 82.5187 150.894 82.2768 150.155 82.2768C148.507 82.2768 147.313 83.3653 147.313 84.8768C147.313 85.6626 147.71 86.6902 149.473 87.4159C150.497 87.8388 150.667 88.1416 150.667 88.5645C150.667 89.1084 150.268 89.4112 149.53 89.4112C148.904 89.4112 148.279 89.1693 147.938 88.8673C147.881 88.8072 147.767 88.8064 147.71 88.8064C147.653 88.8665 147.54 88.9282 147.54 88.9883L147.199 90.197C147.142 90.3179 147.199 90.4997 147.313 90.5598C147.881 90.9227 148.733 91.1646 149.53 91.1646C151.406 91.1646 152.601 90.1369 152.601 88.5045C152.601 87.2349 151.918 86.3883 150.439 85.7835Z"
              fill="black" />
          </g>
          <path
            d="M156.581 68.6127H134.406C133.439 68.6127 132.416 69.5803 132.416 70.608V94.793L143.674 106.099H156.581C157.547 106.099 158.571 105.131 158.571 104.104V70.608C158.571 69.5803 157.547 68.6127 156.581 68.6127Z"
            fill="#0EE0B8" />
          <path
            d="M156.581 68.6127H134.406C133.439 68.6127 132.416 69.5803 132.416 70.608V94.793L143.674 106.099H156.581C157.547 106.099 158.571 105.131 158.571 104.104V70.608C158.571 69.5803 157.547 68.6127 156.581 68.6127Z"
            fill="#FC9E17" />
          <path
            d="M158.57 97.6341V70.608C158.57 69.5803 157.546 68.6127 156.58 68.6127H134.405C133.439 68.6127 132.586 69.4594 132.586 70.427"
            fill="#D68B1E" />
          <path d="M158.57 97.6341V70.608C158.57 69.5803 157.547 68.6127 156.581 68.6127H142.65" fill="#B57208" />
          <path
            d="M142.081 95.2152V104.224C142.081 104.345 142.195 104.466 142.195 104.587L143.56 105.977C143.674 105.977 143.787 106.098 143.9 106.098H152.827L142.309 95.2152H142.081Z"
            fill="#FFB140" />
          <path
            d="M142.081 95.1559V104.225C142.081 104.346 142.195 104.467 142.195 104.588L143.56 105.979C143.674 105.979 143.787 106.1 143.9 106.1H148.449L143.275 96.9701L142.081 95.1559Z"
            fill="#B57208" />
          <path
            d="M143.674 106.099H143.787V96.6065C143.787 95.5788 142.934 94.6112 141.968 94.6112L132.416 94.7322L143.674 106.099Z"
            fill="white" />
          <path d="M132.416 94.7329L143.674 106.1H143.787V96.4262" fill="#D2F3FF" />
          <path
            d="M133.552 94.7322V70.608C133.552 69.5803 134.234 68.6127 135.144 68.6127H134.405C133.439 68.6127 132.415 69.5803 132.415 70.608V94.793L133.552 94.7322Z"
            fill="#E5A13E" />
          <path
            d="M148.555 82.5363C148.555 82.6364 148.573 82.7301 148.608 82.8158C148.644 82.9016 148.693 82.9768 148.757 83.0409C148.82 83.105 148.894 83.1563 148.981 83.1939C149.068 83.2316 149.163 83.25 149.266 83.25C149.375 83.25 149.474 83.2316 149.562 83.1939C149.65 83.1563 149.727 83.1042 149.792 83.0385C149.856 82.9728 149.906 82.8951 149.941 82.8062C149.977 82.7173 149.994 82.6212 149.994 82.5179C149.994 82.4178 149.977 82.324 149.941 82.2383C149.906 82.1526 149.857 82.0773 149.794 82.0133C149.731 81.9492 149.655 81.8987 149.569 81.8611C149.482 81.8234 149.387 81.8042 149.284 81.8042C149.175 81.8042 149.075 81.8234 148.986 81.8611C148.896 81.8987 148.82 81.95 148.757 82.0157C148.693 82.0813 148.644 82.159 148.608 82.2479C148.573 82.3369 148.555 82.433 148.555 82.5363ZM148.675 84.4747V88.1873C148.675 88.3659 148.724 88.5045 148.823 88.603C148.922 88.7015 149.071 88.7504 149.275 88.7504C149.478 88.7504 149.629 88.7015 149.728 88.603C149.826 88.5045 149.875 88.3659 149.875 88.1873V84.4747C149.875 84.2961 149.826 84.1583 149.728 84.0598C149.629 83.9613 149.478 83.9116 149.275 83.9116C149.071 83.9116 148.922 83.9613 148.823 84.0598C148.724 84.1583 148.675 84.2961 148.675 84.4747ZM144.934 84.9369H142.432L143.259 82.163C143.317 81.9708 143.367 81.7914 143.412 81.6248L143.531 81.1778C143.57 81.0272 143.606 80.8871 143.637 80.7557H143.663C143.694 80.8871 143.731 81.0272 143.775 81.1778L143.901 81.6248C143.949 81.7914 144.005 81.9708 144.067 82.163L144.934 84.9369ZM141.577 87.8869L142.021 86.4363H145.371L145.842 87.8941C145.89 88.0535 145.935 88.1849 145.977 88.2882C146.019 88.3915 146.073 88.478 146.139 88.5485C146.21 88.6238 146.296 88.6823 146.397 88.7247C146.499 88.7672 146.614 88.788 146.742 88.788C146.856 88.788 146.974 88.7696 147.093 88.732C147.212 88.6943 147.319 88.639 147.417 88.5661C147.514 88.4933 147.594 88.4035 147.655 88.2954C147.717 88.1873 147.748 88.0607 147.748 87.9149C147.748 87.8493 147.74 87.7788 147.725 87.7035C147.709 87.6282 147.675 87.5112 147.622 87.3518L145.292 80.2839L145.179 79.9771C145.144 79.8858 145.106 79.8025 145.066 79.7272C145.027 79.6519 144.987 79.5847 144.944 79.5238C144.902 79.4629 144.855 79.4036 144.802 79.3476C144.688 79.2258 144.545 79.1329 144.375 79.0696C144.205 79.0063 143.994 78.9743 143.742 78.9743C143.491 78.9743 143.28 79.0063 143.11 79.0696C142.94 79.1329 142.798 79.2258 142.683 79.3476C142.63 79.4036 142.583 79.4629 142.541 79.5238C142.499 79.5847 142.459 79.6519 142.419 79.7272C142.379 79.8025 142.341 79.8858 142.306 79.9771L142.194 80.2839L139.87 87.3871C139.822 87.5417 139.787 87.657 139.767 87.7323C139.748 87.8076 139.737 87.8821 139.737 87.9574C139.737 88.0888 139.766 88.2057 139.823 88.309C139.88 88.4124 139.956 88.4989 140.048 88.5694C140.141 88.6398 140.244 88.6943 140.356 88.732C140.469 88.7696 140.582 88.788 140.697 88.788C140.825 88.788 140.938 88.768 141.035 88.7279C141.132 88.6879 141.211 88.635 141.273 88.5694C141.339 88.4989 141.394 88.4092 141.439 88.2986C141.483 88.1881 141.529 88.0511 141.577 87.8869Z"
            fill="white" />
          <path d="M450 222.061V246.804H0V222.061H450Z" fill="#F1F2F2" />
          <path d="M25.5654 223.864V297.49H0V223.864H25.5654Z" fill="#F1F2F2" />
          <path d="M449.992 226.371V299.998H424.427V226.371H449.992Z" fill="#F1F2F2" />
          <path d="M122.724 182.341H171.686L175.768 222.222H118.642L122.724 182.341Z" fill="#BCBEC0" />
          <path
            d="M194.245 220.773C194.245 222.214 192.046 223.392 189.327 223.392H105.076C102.356 223.392 100.164 222.214 100.164 220.773V220.076C100.164 218.634 102.356 217.473 105.076 217.473H189.319C192.038 217.473 194.238 218.634 194.238 220.076V220.773H194.245Z"
            fill="#E6E7E8" />
          <path
            d="M18.7982 165.44V181.292C18.7982 187.387 23.4457 190.159 29.1704 190.159H265.224C270.957 190.159 275.604 187.387 275.604 181.292V165.44H18.7982Z"
            fill="#EDECE9" />
          <path
            d="M275.604 172.309V8.86695C275.604 2.77943 270.957 0 265.224 0H29.1779C23.4532 0 18.8057 2.77142 18.8057 8.86695V172.309H275.604Z"
            fill="#2F292B" />
          <path d="M269.489 8.32708V164.111H24.9086V8.32708H269.489Z" fill="#31A499" />
          <path d="M269.489 8.32708V22.7609H24.9086V8.32708H269.489Z" fill="#63C8C7" />
          <path
            d="M38.1936 15.5416C38.1936 17.3518 36.8076 18.8256 35.1053 18.8256C33.403 18.8256 32.017 17.3518 32.017 15.5416C32.017 13.7313 33.403 12.2575 35.1053 12.2575C36.8152 12.2575 38.1936 13.7313 38.1936 15.5416Z"
            fill="#417E8F" />
          <path d="M187.616 31.1344V152.765H32.0094V31.1344H187.616Z" fill="#42494F" />
          <path d="M187.616 31.1344V38.1271H32.0094V31.1344H187.616Z" fill="#58595B" />
          <path
            d="M41.6743 34.6316C41.6743 35.833 40.7554 36.8102 39.6255 36.8102C38.4956 36.8102 37.5767 35.833 37.5767 34.6316C37.5767 33.4301 38.4956 32.4529 39.6255 32.4529C40.7554 32.4529 41.6743 33.4301 41.6743 34.6316Z"
            fill="#E36230" />
          <path
            d="M47.436 34.6316C47.436 35.833 46.517 36.8102 45.3872 36.8102C44.2573 36.8102 43.3383 35.833 43.3383 34.6316C43.3383 33.4301 44.2573 32.4529 45.3872 32.4529C46.517 32.4529 47.436 33.4221 47.436 34.6235C47.436 34.6316 47.436 34.6316 47.436 34.6316Z"
            fill="#F6E19C" />
          <path
            d="M53.1886 34.6316C53.1886 35.833 52.2696 36.8102 51.1397 36.8022C50.0099 36.8022 49.0909 35.825 49.0984 34.6235C49.0984 33.4221 50.0174 32.4449 51.1473 32.4529C52.2696 32.4609 53.1886 33.4301 53.1886 34.6316Z"
            fill="#9BBD2F" />
          <path d="M63.5465 66.3139V68.5566H44.3838V66.3139H63.5465Z" fill="#D7DF23" />
          <path d="M76.2245 66.3139V68.5566H67.66V66.3139H76.2245Z" fill="#F7941E" />
          <path d="M94.0231 75.0559V77.2906H44.3838V75.0559H94.0231Z" fill="#EF4136" />
          <path d="M122.436 75.0559V77.2906H99.4991V75.0559H122.436Z" fill="#F7941E" />
          <path d="M76.2253 82.7013V84.9361H49.515V82.7013H76.2253Z" fill="#D7DF23" />
          <path d="M89.2339 82.7013V84.9361H80.6694V82.7013H89.2339Z" fill="#F7941E" />
          <path d="M129.629 82.7013V84.9361H96.0787V82.7013H129.629Z" fill="#EF4136" />
          <path d="M61.1587 91.8061V94.0409H44.3838V91.8061H61.1587Z" fill="#EF4136" />
          <path d="M73.1377 91.8061V94.0409H65.2662V91.8061H73.1377Z" fill="#F7941E" />
          <path d="M129.626 91.8061V94.0409H79.3015V91.8061H129.626Z" fill="#D7DF23" />
          <path d="M52.7675 99.4508V101.686H44.3838V99.4508H52.7675Z" fill="#F7941E" />
          <path d="M89.2287 99.4508V101.686H57.7352V99.4508H89.2287Z" fill="#F7941E" />
          <path d="M137.161 99.4508V101.686H96.0787V99.4508H137.161Z" fill="#EF4136" />
          <path d="M77.9336 108.55V110.793H44.3838V108.55H77.9336Z" fill="#D7DF23" />
          <path d="M133.739 108.55V110.793H84.9509V108.55H133.739Z" fill="#F7941E" />
          <path d="M77.9336 57.2146V59.4574H44.3838V57.2146H77.9336Z" fill="#D7DF23" />
          <path d="M262.204 51.3362V149.081H201.522V51.3362H262.204Z" fill="#443947" />
          <path d="M262.202 51.3362V58.3368H201.174V51.3362H262.202Z" fill="#58595B" />
          <path
            d="M214.313 54.8317C214.313 56.0332 213.394 57.0024 212.264 57.0024C211.134 57.0024 210.223 56.0252 210.223 54.8237C210.223 53.6302 211.134 52.661 212.264 52.653C213.394 52.661 214.313 53.6302 214.313 54.8317Z"
            fill="#E36230" />
          <path
            d="M220.069 54.8317C220.069 56.0332 219.15 57.0104 218.02 57.0104C216.891 57.0104 215.972 56.0332 215.972 54.8317C215.972 53.6302 216.883 52.653 218.02 52.653C219.15 52.653 220.069 53.6302 220.069 54.8317Z"
            fill="#F6E19C" />
          <path
            d="M208.422 54.8317C208.422 56.0332 207.503 57.0104 206.374 57.0024C205.244 57.0024 204.325 56.0252 204.332 54.8237C204.332 53.6222 205.251 52.645 206.381 52.653C207.503 52.661 208.422 53.6382 208.422 54.8317Z"
            fill="#9BBD2F" />
          <g opacity="0.999998">
            <path d="M217.497 70.0161V72.2588H214.288V70.0161H217.497Z" fill="white" />
          </g>
          <g opacity="0.999998">
            <path d="M217.497 76.0115V78.2542H214.288V76.0115H217.497Z" fill="white" />
          </g>
          <g opacity="0.999998">
            <path d="M217.497 81.2115V83.4543H214.288V81.2115H217.497Z" fill="white" />
          </g>
          <g opacity="0.999998">
            <path d="M217.497 104.837V107.079H214.288V104.837H217.497Z" fill="white" />
          </g>
          <g opacity="0.999998">
            <path d="M217.497 122.977V125.219H214.288V122.977H217.497Z" fill="white" />
          </g>
          <g opacity="0.999998">
            <path d="M224.73 87.307V89.5498H221.521V87.307H224.73Z" fill="white" />
          </g>
          <g opacity="0.999998">
            <path d="M224.73 93.3024V95.5452H221.521V93.3024H224.73Z" fill="white" />
          </g>
          <g opacity="0.999998">
            <path d="M221.603 111.289V113.532H218.409V111.289H221.603Z" fill="white" />
          </g>
          <g opacity="0.999998">
            <path d="M221.603 117.057V119.292H218.409V117.057H221.603Z" fill="white" />
          </g>
          <g opacity="0.999998">
            <path d="M224.73 99.6799V101.923H221.521V99.6799H224.73Z" fill="white" />
          </g>
          <g opacity="0.999998">
            <path d="M232.42 70.0161V72.2588H220.699V70.0161H232.42Z" fill="white" />
          </g>
          <g opacity="0.999998">
            <path d="M237.896 75.3955V77.6383H220.699V75.3955H237.896Z" fill="white" />
          </g>
          <g opacity="0.999998">
            <path d="M243.349 104.837V107.079H220.699V104.837H243.349Z" fill="white" />
          </g>
          <g opacity="0.999998">
            <path d="M237.507 81.2115V83.4543H220.009V81.2115H237.507Z" fill="white" />
          </g>
          <g opacity="0.999998">
            <path d="M237.507 122.977V125.219H220.009V122.977H237.507Z" fill="white" />
          </g>
          <g opacity="0.999998">
            <path d="M241.91 87.307V89.5498H226.558V87.307H241.91Z" fill="white" />
          </g>
          <g opacity="0.999998">
            <path d="M241.91 93.6901V95.9249H226.558V93.6901H241.91Z" fill="white" />
          </g>
          <g opacity="0.999998">
            <path d="M241.91 99.6799V101.923H226.558V99.6799H241.91Z" fill="white" />
          </g>
          <g opacity="0.999998">
            <path d="M241.91 111.289V113.532H226.558V111.289H241.91Z" fill="white" />
          </g>
          <g opacity="0.999998">
            <path d="M241.91 117.057V119.292H226.558V117.057H241.91Z" fill="white" />
          </g>
          <path
            d="M425.635 214.972C425.635 215.845 285.222 215.845 285.222 214.972V140.848C285.222 134.112 286.849 132.222 292.777 132.222H418.08C424.106 132.222 425.635 134.577 425.635 140.848V214.972Z"
            fill="#F1F2F2" />
          <path
            d="M282.319 216.387C282.515 219.471 284.021 221.874 285.867 221.874H424.977C426.823 221.874 428.329 219.471 428.525 216.387H282.319Z"
            fill="#DAD3D6" />
          <path d="M428.525 212.474V216.815H282.319V212.474H428.525Z" fill="#F1F2F2" />
          <path
            d="M424.454 210.754C424.454 211.595 286.413 211.595 286.413 210.754V142.069C286.413 135.445 288.01 133.587 293.84 133.587H417.027C422.948 133.587 424.454 135.901 424.454 142.069V210.754Z"
            fill="#565F66" />
          <path d="M418.23 139.104V204.737H292.543V139.104H418.23Z" fill="#31A499" />
          <path d="M394.665 143.24V202.497H311.891V143.24H394.665Z" fill="#F1F2F2" />
          <path d="M392.128 145.047V200.684H314.423V145.047H392.128Z" fill="#565F66" />
          <path d="M339.288 159.028V160.533H321.119V159.028H339.288Z" fill="#27AAE1" />
          <path d="M354.76 163.95V165.455H321.119V163.95H354.76Z" fill="#27AAE1" />
          <path d="M347.997 168.684V170.19H321.121V168.684H347.997Z" fill="white" />
          <path d="M363.387 172.821V174.326H323.901V172.821H363.387Z" fill="#00AEEF" />
          <path d="M369.51 177.748V179.254H321.121V177.748H369.51Z" fill="white" />
          <path d="M368.607 181.896V183.402H328.354V181.896H368.607Z" fill="#00AEEF" />
          <path d="M369.51 186.819V188.324H321.121V186.819H369.51Z" fill="white" />
          <path
            d="M198.402 86.4993C197.507 84.8083 195.407 88.3661 194.381 91.1935C193.847 90.1856 191.721 76.482 191.429 70.5297C185.587 63.7726 178.067 62.9068 168.608 62.9068C158.235 62.9068 146.651 64.6045 140.666 70.1036C140.33 77.4086 139.64 89.9286 139.653 90.6185C138.633 87.8994 136.856 84.876 135.986 86.4993C134.482 89.3131 132.406 93.1212 134.805 98.3158C137.204 103.524 137.962 105.783 139.615 103.828C139.92 103.423 140.137 102.949 140.249 102.435C140.249 102.435 145.128 116.003 148.235 119.906C150.324 122.524 156.806 127.8 156.806 127.8C157.353 133.941 157.645 141.957 157.11 143.763C155.961 147.557 147.39 167.335 147.39 167.335C183.872 168.437 183.94 167.531 188.197 169.06C192.001 170.419 179.03 148.261 177.7 144.824C177.004 143.019 176.861 133.772 177.042 127.191C177.042 127.191 182.933 121.049 185.065 118.33C187.694 114.975 193.828 103.855 193.828 103.855C193.953 103.504 194.089 103.179 194.22 102.821C194.332 103.193 194.512 103.538 194.748 103.835C196.407 105.797 197.153 103.531 199.558 98.3294C201.988 93.1212 199.913 89.3131 198.402 86.4993Z"
            fill="#FFB288" />
          <path d="M215.674 215.302L264.047 215.204L262.29 236.241L214.662 227.427L215.674 215.302Z" fill="#FFB288" />
          <path
            d="M195.73 217.098C194.188 216.903 192.663 216.575 191.169 216.117C186.169 214.495 182.476 215.964 182.412 219.577L187.699 220.161C192.504 221.88 198.02 225.475 203.314 225.754C207.508 225.972 225.612 229.25 225.612 229.25L231.423 215.712L214.32 214.196L204.651 198.386C203.674 196.999 201.695 197.089 201.304 199.305L199.434 197.266C198.049 195.757 196.304 196.698 195.768 198.56L194.837 197.531C193.391 195.934 191.649 196.767 191.058 198.848L183.365 186.724C181.955 187.088 180.638 189.11 182.507 192.582L195.73 217.098Z"
            fill="#FFB288" />
          <path
            d="M63.3854 217.343C63.3854 217.343 57.2202 226.812 65.7595 234.983C70.1348 239.177 77.2012 235.68 77.2012 235.68L104.677 205.215L92.2911 176.908L63.3854 217.343Z"
            fill="#FFB288" />
          <path d="M101.893 211.323L132.346 184.268L146.64 156.536L126.752 136.92L83.8692 182.238L101.893 211.323Z"
            fill="white" />
          <path d="M153.792 158.479L152.381 120.689L181.697 121.041L182.822 158.486L153.792 158.479Z" fill="#FFB288" />
          <path
            d="M271.476 217.343C271.476 217.343 277.635 226.812 269.102 234.983C264.72 239.177 257.654 235.68 257.654 235.68L230.165 205.215L242.551 176.908L271.476 217.343Z"
            fill="#FFB288" />
          <path d="M233.03 211.323L202.577 184.268L188.283 156.536L208.17 136.92L251.053 182.238L233.03 211.323Z"
            fill="white" />
          <path
            d="M207.95 136.794L181.848 133.168C181.848 133.168 171.5 135.779 166.596 135.779C161.674 135.779 153.004 133.168 153.004 133.168L126.926 136.794L130.487 158.567V170.742L116.703 197.561L106.454 289.8C106.454 289.8 147.74 289.448 166.41 289.874V289.908C166.733 289.908 167.081 289.895 167.423 289.895C167.752 289.895 168.1 289.908 168.423 289.908V289.874C187.118 289.448 224.992 289.908 224.992 289.908L218.168 197.567"
            fill="white" />
          <path d="M115.618 227.989L68.05 237.182L66.1516 216.16L114.523 215.873L115.618 227.989Z" fill="#FFB288" />
          <path
            d="M133.44 218.3C135.003 218.091 136.548 217.748 138.06 217.276C143.123 215.606 146.875 217.04 146.961 220.653L141.603 221.288C136.739 223.052 131.165 226.699 125.797 227.029C121.545 227.287 103.202 230.737 103.202 230.737L97.2342 217.252L114.571 215.575L124.29 199.671C125.272 198.275 127.28 198.345 127.689 200.558L129.575 198.501C130.971 196.979 132.745 197.904 133.299 199.761L134.237 198.723C135.694 197.112 137.465 197.929 138.077 200.004L145.812 187.806C147.244 188.156 148.591 190.167 146.714 193.657L133.44 218.3Z"
            fill="#FFB288" />
          <path
            d="M195.992 62.9034C195.309 57.8373 194.78 52.4532 191.145 48.9224C187.509 45.3917 182.108 42.2667 178.174 41.9353C174.234 41.6039 168.926 41.3942 168.926 41.3942C168.926 41.3942 168.522 40.3864 169.802 39.1824C171.095 37.9717 169.423 37.4238 166.471 39.1824C163.519 40.941 159.579 43.1393 159.579 43.1393C159.579 43.1393 157.416 44.9047 157.808 43.4707C158.199 42.0503 161.064 38.0596 161.064 38.0596C161.064 38.0596 146.552 44.4582 142.569 49.193C133.016 60.5361 137.342 79.218 139.822 87.3752L140.275 102.438C140.275 102.438 145.154 116.007 148.261 119.91C150.163 122.291 153.513 126.119 155.794 127.323C158.162 128.567 163.588 129.156 166.185 129.136C168.908 129.129 174.631 128.594 177.074 127.188C179.591 125.733 182.966 121.046 185.097 118.327C187.726 114.972 193.86 103.852 193.86 103.852L193.867 88.9715C194.215 88.2004 197.509 73.8609 195.992 62.9034Z"
            fill="#231F20" />
          <path
            d="M236.11 300C236.495 299.263 236.7 298.438 236.719 297.599L225.258 216.79C225.258 194.754 214.997 176.904 202.35 176.904H133.967C121.314 176.904 111.04 194.754 111.04 216.79L97.6595 297.599C97.672 298.444 97.8833 299.269 98.2686 300H236.11Z"
            fill="#C2B59B" />
          <path
            d="M171.617 299.56V275.623C171.617 271.909 169.535 268.893 166.956 268.893C164.389 268.893 162.307 271.903 162.307 275.623V299.56H171.617Z"
            fill="#58595B" />
          <path
            d="M179.703 244.448C184.035 244.448 187.546 248.919 187.546 254.459V264.138C187.546 269.671 184.035 274.155 179.703 274.155H154.682C150.362 274.155 146.844 269.671 146.844 264.138V254.459C146.844 248.926 150.356 244.448 154.682 244.448H179.703Z"
            fill="#58595B" />
          </g>

         
        </svg>
